# xmcd
#
# Track frame offsets:
#	150
#	24375
#	42337
#	62550
#	94575
#
# Disc length: 1581 seconds
#
# Revision: 1
# Processed by: cddbd v1.5PL3 Copyright (c) Steve Scherf et al.
# Submitted via: CDex 1.50Beta5
#
DISCID=34062b05
DTITLE=聖飢魔II - 20世紀狂詩曲
DYEAR=1999
DGENRE=Rock
TTITLE0=20世紀狂詩曲
TTITLE1=REVOLUTION HAS COME
TTITLE2=/FROM HERE TO ETERNITY
TTITLE3=悪魔のメリークリスマス
TTITLE4=20世紀狂詩曲(Karaoke)
EXTD=
EXTT0=
EXTT1=
EXTT2=
EXTT3=
EXTT4=
PLAYORDER=
